<svg width="24" height="24" viewBox="0 0 24 24" fill="none" xmlns="http://www.w3.org/2000/svg">
<path d="M12 22C17.5229 22 22 17.5229 22 12C22 6.47715 17.5229 2 12 2C6.47715 2 2 6.47715 2 12C2 17.5229 6.47715 22 12 22Z" stroke="white" stroke-width="2" stroke-linecap="round" stroke-linejoin="round"/>
<path d="M9.69238 16.6152H14.3078" stroke="white" stroke-width="2" stroke-linecap="round" stroke-linejoin="round"/>
<path d="M12.0001 16.6151V11.2305H10.4617" stroke="white" stroke-width="2" stroke-linecap="round" stroke-linejoin="round"/>
<path d="M12.0001 7.76923C11.7877 7.76923 11.6155 7.59703 11.6155 7.38462C11.6155 7.1722 11.7877 7 12.0001 7" stroke="white" stroke-width="2" stroke-linecap="round" stroke-linejoin="round"/>
<path d="M12 7.76923C12.2124 7.76923 12.3846 7.59703 12.3846 7.38462C12.3846 7.1722 12.2124 7 12 7" stroke="white" stroke-width="2" stroke-linecap="round" stroke-linejoin="round"/>
</svg>
